<?xml version="1.0" encoding="UTF-8"?>
<svg id="a" data-name="Layer 1" xmlns="http://www.w3.org/2000/svg" viewBox="0 0 1821 583.2">
  <g>
    <path d="M1223.73,8.98c-12.28,33.02-31.35,10.26-50.31,2.38-83.09-34.54-184.83,12.69-206.92,101-27.45,109.74,30.8,216.35,151.43,214.99,35.46-.4,47.56-10.98,76.41-24.86,16.13-7.76,25.69,1.16,31.64,15.59l70.01.42c-9.35-7.85-20.52-13.27-29.87-21.18-27.19-23.02-48.53-57.91-53.42-93.5l-13.47,21.86c-53.35,60.86-156.35,31.59-162.55-52.44-9.7-131.45,169.38-137.42,181.89-26.34,1.65,14.64.03,29.78,2.2,44.94,24.54,171.96,278.71,178.43,315.14,13.83,6.41-28.99-.84-55.04,11.72-82.56,31.19-68.35,141.31-62.68,163.63,10.33,29.59,96.79-84.43,159.72-151.32,88.47l-12.51-18.1c-9.86,51.57-44.13,94.44-91.15,117.05v126.49h75.42v-137.48c0-2.79,5.77-9.11,9.05-9.81,9.4-2.01,21.01,8.88,30.29,12.9,64.74,28.03,153.1,9.99,192.91-50.52,91.72-139.42-51.63-329.31-199.73-237.44-15.04,9.33-29.25,27.48-47.6,27.81-19.21.35-48.02-26.53-65.56-36.24-41.55-22.99-101-16.37-144.04.27v95.85l17.27-21.23c81.87-62.91,170.7,30.99,130.24,117.67-26.55,56.88-110.94,62.75-144.41,9.66-16.12-25.57-14.17-40.87-14.03-69.11.22-46.89-.3-93.82-.06-140.69h-72.28Z"/>
    <text transform="translate(960.24 498.1)" style="font-family: NasalizationRg-Regular, Nasalization; font-size: 78.51px;"><tspan x="0" y="0">Africa obey projects</tspan></text>
  </g>
  <g>
    <path d="M488.63,98.61c-41.31-8.19-84.98-10.17-126.82-4.3-28.41,3.99-60.33,12.38-81.89,32.1l39.59,56.38c3.74-9.08,9.35-16.22,17.74-21.33,25.47-15.5,97.91-13.46,127.6-8.25,8.56,1.5,15.75,4.05,23.78,7.04v-61.64ZM509.68,95.61v125.53c0,51.7-86.7,47.68-121.08,45.91-16.69-.86-43.37-2.74-55.45-15.21l-100.09-143.45c-22.73-22.46-57.88-20.01-78.12,4.55L6.06,324.11h82.68l105.99-150.31c21.99,28.47,39.83,60.27,61.16,89.14,16.55,22.4,28.91,36.03,55.39,46.83,61.49,25.1,202.08,26.45,247.12-30.9,8.63-10.99,20.42-38.04,20.42-51.74v-72.91h139.06c6.41,0,19.37,11.47,21.09,17.99,6.13,23.27-13.47,32.95-33.14,34.6-33.98,2.84-71.61-2.06-105.97.02.84,19.17-2.35,38.4-9.03,56.36,38.52-.37,79.79,3.13,118.1.84,58.33-3.49,113.76-35.96,99.49-102.63-7.78-36.37-51.46-65.81-87.53-65.81h-211.22ZM578.83,322.61v-36.08l-15.01,17.31-25.58,18.77h40.59Z"/>
    <text transform="translate(0 397.04)" style="font-family: NasalizationRg-Regular, Nasalization; font-size: 77.13px;"><tspan x="0" y="0">Africa obey projects</tspan></text>
  </g>
</svg>