<?xml version="1.0" encoding="UTF-8"?>
<svg id="a" data-name="Layer 1" xmlns="http://www.w3.org/2000/svg" viewBox="0 0 845.66 389.71">
  <path d="M488.63,7.68c-41.31-8.19-84.98-10.17-126.82-4.3-28.41,3.99-60.33,12.38-81.89,32.1l39.59,56.38c3.74-9.08,9.35-16.22,17.74-21.33,25.47-15.5,97.91-13.46,127.6-8.25,8.56,1.5,15.75,4.05,23.78,7.04V7.68ZM509.68,4.68v125.53c0,51.7-86.7,47.68-121.08,45.91-16.69-.86-43.37-2.74-55.45-15.21L233.05,17.46c-22.73-22.46-57.88-20.01-78.12,4.55L6.06,233.18h82.68l105.99-150.31c21.99,28.47,39.83,60.27,61.16,89.14,16.55,22.4,28.91,36.03,55.39,46.83,61.49,25.1,202.08,26.45,247.12-30.9,8.63-10.99,20.42-38.04,20.42-51.74V63.31h139.06c6.41,0,19.37,11.47,21.09,17.99,6.13,23.27-13.47,32.95-33.14,34.6-33.98,2.84-71.61-2.06-105.97.02.84,19.17-2.35,38.4-9.03,56.36,38.52-.37,79.79,3.13,118.1.84,58.33-3.49,113.76-35.96,99.49-102.63-7.78-36.37-51.46-65.81-87.53-65.81h-211.22ZM578.83,231.68v-36.08l-15.01,17.31-25.58,18.77h40.59Z"/>
  <text transform="translate(0 306.11)" style="font-family: NasalizationRg-Regular, Nasalization; font-size: 77.13px;"><tspan x="0" y="0">Africa obey projects</tspan></text>
</svg>